<svg width="617" height="440" viewBox="0 0 617 440" fill="none" xmlns="http://www.w3.org/2000/svg">
<path fill-rule="evenodd" clip-rule="evenodd" d="M416.797 120.393C436.955 120.393 453.29 136.742 453.29 156.897C453.29 177.052 436.955 193.396 416.797 193.396C396.645 193.396 380.299 177.052 380.299 156.897C380.299 136.742 396.645 120.393 416.797 120.393ZM559.512 118.903C557.761 103.566 568.774 89.703 584.114 87.9515C599.449 86.2054 613.31 97.2198 615.061 112.557C624.339 193.188 599.795 270.3 552.779 329.573C505.789 388.809 436.289 430.237 355.633 439.526C340.298 441.273 326.437 430.258 324.691 414.916C322.94 399.578 333.953 385.716 349.293 383.97C414.599 376.447 470.925 342.845 509.041 294.789C547.147 246.759 567.033 184.261 559.512 118.903ZM213.242 336.755C223.989 347.807 223.744 365.486 212.694 376.24C201.644 386.988 183.967 386.743 173.215 375.692L111.715 312.511L50.21 375.692C39.458 386.743 21.781 386.988 10.7308 376.24C-0.324621 365.486 -0.564162 347.807 10.1826 336.755L72.4647 272.776L8.22915 208.754C-2.69857 197.884 -2.75177 180.199 8.12272 169.269C18.9919 158.34 36.6689 158.287 47.6019 169.163L111.715 233.067L336.673 8.83241C347.606 -2.04368 365.283 -1.99047 376.152 8.93886C387.021 19.8682 386.973 37.5531 376.046 48.4239L150.965 272.776L213.242 336.755Z" fill="#FF9100"/>
</svg>
