<svg width="216" height="217" viewBox="0 0 216 217" fill="none" xmlns="http://www.w3.org/2000/svg">
<g filter="url(#filter0_d_194_857)">
<circle cx="106" cy="106.708" r="100" fill="#FAFAFA"/>
</g>
<path d="M74.9173 53.7144C75.6177 52.8784 75.9625 51.8011 75.8775 50.7138C75.7926 49.6265 75.2847 48.6158 74.4629 47.8988C73.6412 47.1817 72.571 46.8154 71.4822 46.8786C70.3934 46.9417 69.3728 47.4292 68.6394 48.2365L61.4615 56.4589C57.3913 61.1232 55.0905 67.07 54.9614 73.2592L54.6447 88.365C54.6334 88.9122 54.73 89.4563 54.9289 89.9661C55.1279 90.476 55.4253 90.9417 55.8042 91.3366C56.1831 91.7315 56.6361 92.0479 57.1373 92.2678C57.6385 92.4876 58.1781 92.6066 58.7253 92.6179C59.2725 92.6292 59.8166 92.5326 60.3264 92.3337C60.8363 92.1347 61.302 91.8373 61.6969 91.4584C62.0918 91.0795 62.4082 90.6265 62.6281 90.1253C62.8479 89.6241 62.9669 89.0845 62.9782 88.5373L63.2893 73.437C63.3784 69.202 64.9536 65.1332 67.7394 61.9423L74.9173 53.7144Z" fill="#FF9100"/>
<path fill-rule="evenodd" clip-rule="evenodd" d="M73.8506 83.0872C74.2237 77.1434 76.848 71.5652 81.1892 67.4882C85.5304 63.4112 91.2622 61.1419 97.2177 61.1423H100.312V56.9756C100.312 55.5021 100.898 54.089 101.939 53.0471C102.981 52.0052 104.394 51.4199 105.868 51.4199C107.341 51.4199 108.754 52.0052 109.796 53.0471C110.838 54.089 111.424 55.5021 111.424 56.9756V61.1423H114.518C120.474 61.1419 126.205 63.4112 130.547 67.4882C134.888 71.5652 137.512 77.1434 137.885 83.0872L139.113 102.721C139.581 110.207 142.094 117.421 146.38 123.577C147.265 124.85 147.806 126.33 147.95 127.873C148.094 129.417 147.836 130.971 147.201 132.386C146.567 133.8 145.577 135.026 144.328 135.945C143.079 136.863 141.613 137.443 140.074 137.627L121.146 139.894V145.866C121.146 149.918 119.536 153.804 116.671 156.669C113.806 159.535 109.92 161.144 105.868 161.144C101.816 161.144 97.9299 159.535 95.0647 156.669C92.1995 153.804 90.5898 149.918 90.5898 145.866V139.894L71.6617 137.622C70.1233 137.437 68.6589 136.857 67.4107 135.939C66.1626 135.021 65.1731 133.795 64.5385 132.382C63.9038 130.968 63.6456 129.415 63.7888 127.872C63.9321 126.329 64.472 124.849 65.356 123.577C69.6411 117.421 72.1546 110.207 72.6228 102.721L73.8506 83.0928V83.0872ZM97.2177 69.4758C93.382 69.4754 89.6902 70.9368 86.8941 73.5626C84.098 76.1884 82.4077 79.7812 82.1674 83.6095L80.9452 103.243C80.3804 112.249 77.3558 120.927 72.2006 128.333C72.1365 128.425 72.0973 128.532 72.0869 128.643C72.0764 128.755 72.095 128.867 72.1409 128.97C72.1867 129.072 72.2583 129.161 72.3486 129.227C72.4388 129.294 72.5448 129.336 72.6561 129.349L93.4177 131.844C101.69 132.833 110.046 132.833 118.318 131.844L139.08 129.349C139.191 129.336 139.297 129.294 139.387 129.227C139.478 129.161 139.549 129.072 139.595 128.97C139.641 128.867 139.659 128.755 139.649 128.643C139.638 128.532 139.599 128.425 139.535 128.333C134.382 120.926 131.359 112.248 130.796 103.243L129.568 83.6095C129.328 79.7812 127.638 76.1884 124.842 73.5626C122.046 70.9368 118.354 69.4754 114.518 69.4758H97.2177ZM105.868 152.811C102.034 152.811 98.9233 149.7 98.9233 145.866V141.7H112.812V145.866C112.812 149.7 109.701 152.811 105.868 152.811Z" fill="#FF9100"/>
<path d="M137.219 47.8364C136.386 48.563 135.877 49.5903 135.802 50.6926C135.727 51.7948 136.092 52.8817 136.819 53.7143L143.997 61.9367C146.781 65.1299 148.355 69.2008 148.441 73.4369L148.758 88.5317C148.781 89.6368 149.241 90.6875 150.039 91.4528C150.837 92.2181 151.906 92.6352 153.011 92.6123C154.116 92.5895 155.166 92.1286 155.932 91.331C156.697 90.5335 157.114 89.4646 157.091 88.3595L156.775 73.2592C156.645 67.07 154.345 61.1232 150.274 56.4588L143.097 48.2364C142.37 47.4041 141.343 46.8944 140.24 46.8194C139.138 46.7444 138.051 47.1102 137.219 47.8364Z" fill="#FF9100"/>
<defs>
<filter id="filter0_d_194_857" x="0" y="0.708496" width="216" height="216" filterUnits="userSpaceOnUse" color-interpolation-filters="sRGB">
<feFlood flood-opacity="0" result="BackgroundImageFix"/>
<feColorMatrix in="SourceAlpha" type="matrix" values="0 0 0 0 0 0 0 0 0 0 0 0 0 0 0 0 0 0 127 0" result="hardAlpha"/>
<feOffset dx="2" dy="2"/>
<feGaussianBlur stdDeviation="4"/>
<feComposite in2="hardAlpha" operator="out"/>
<feColorMatrix type="matrix" values="0 0 0 0 0 0 0 0 0 0 0 0 0 0 0 0 0 0 0.75 0"/>
<feBlend mode="normal" in2="BackgroundImageFix" result="effect1_dropShadow_194_857"/>
<feBlend mode="normal" in="SourceGraphic" in2="effect1_dropShadow_194_857" result="shape"/>
</filter>
</defs>
</svg>
