<svg width="216" height="217" viewBox="0 0 216 217" fill="none" xmlns="http://www.w3.org/2000/svg">
<g filter="url(#filter0_d_194_846)">
<circle cx="106" cy="106.708" r="100" fill="#FAFAFA"/>
</g>
<g clip-path="url(#clip0_194_846)">
<path d="M113.085 57.7979L161.053 140.877C161.784 142.144 162.169 143.581 162.169 145.044C162.169 146.507 161.784 147.944 161.053 149.211C160.321 150.478 159.269 151.53 158.002 152.261C156.736 152.992 155.299 153.377 153.836 153.378H57.9004C56.4376 153.377 55.0006 152.992 53.7338 152.261C52.4669 151.53 51.415 150.478 50.6836 149.211C49.9522 147.944 49.5671 146.507 49.5671 145.044C49.5671 143.581 49.9522 142.144 50.6836 140.877L98.6512 57.7979C101.857 52.2422 109.874 52.2422 113.085 57.7979ZM105.868 67.5203L62.7116 142.266H149.024L105.868 67.5203ZM105.868 123.644C107.342 123.644 108.755 124.229 109.797 125.271C110.838 126.313 111.424 127.726 111.424 129.199C111.424 130.673 110.838 132.086 109.797 133.128C108.755 134.17 107.342 134.755 105.868 134.755C104.395 134.755 102.981 134.17 101.94 133.128C100.898 132.086 100.312 130.673 100.312 129.199C100.312 127.726 100.898 126.313 101.94 125.271C102.981 124.229 104.395 123.644 105.868 123.644ZM105.868 84.7539C107.342 84.7539 108.755 85.3393 109.797 86.3812C110.838 87.4231 111.424 88.8362 111.424 90.3096V112.532C111.424 114.006 110.838 115.419 109.797 116.461C108.755 117.503 107.342 118.088 105.868 118.088C104.395 118.088 102.981 117.503 101.94 116.461C100.898 115.419 100.312 114.006 100.312 112.532V90.3096C100.312 88.8362 100.898 87.4231 101.94 86.3812C102.981 85.3393 104.395 84.7539 105.868 84.7539Z" fill="#FF9100"/>
</g>
<defs>
<filter id="filter0_d_194_846" x="0" y="0.708496" width="216" height="216" filterUnits="userSpaceOnUse" color-interpolation-filters="sRGB">
<feFlood flood-opacity="0" result="BackgroundImageFix"/>
<feColorMatrix in="SourceAlpha" type="matrix" values="0 0 0 0 0 0 0 0 0 0 0 0 0 0 0 0 0 0 127 0" result="hardAlpha"/>
<feOffset dx="2" dy="2"/>
<feGaussianBlur stdDeviation="4"/>
<feComposite in2="hardAlpha" operator="out"/>
<feColorMatrix type="matrix" values="0 0 0 0 0 0 0 0 0 0 0 0 0 0 0 0 0 0 0.75 0"/>
<feBlend mode="normal" in2="BackgroundImageFix" result="effect1_dropShadow_194_846"/>
<feBlend mode="normal" in="SourceGraphic" in2="effect1_dropShadow_194_846" result="shape"/>
</filter>
<clipPath id="clip0_194_846">
<rect width="133.336" height="133.336" fill="white" transform="translate(39.2 40.3086)"/>
</clipPath>
</defs>
</svg>
