<svg width="216" height="217" viewBox="0 0 216 217" fill="none" xmlns="http://www.w3.org/2000/svg">
<g filter="url(#filter0_d_194_833)">
<circle cx="106" cy="106.708" r="100" fill="#FAFAFA"/>
</g>
<path d="M54.3049 133.759L83.0035 109.849C86.154 107.221 90.4283 105.742 94.8866 105.739H110.357C113.33 105.739 116.182 106.723 118.284 108.475C120.386 110.226 121.567 112.602 121.567 115.079C121.567 117.556 120.386 119.932 118.284 121.683C116.182 123.435 113.33 124.419 110.357 124.419H96.3439M118.765 121.243L142.138 98.4074C143.944 96.7397 146.448 95.7121 149.136 95.5359C151.824 95.3597 154.49 96.0483 156.587 97.4601C158.683 98.872 160.051 100.9 160.408 103.126C160.765 105.352 160.084 107.608 158.506 109.428L134.964 137.168C133.423 138.987 131.383 140.474 129.014 141.506C126.646 142.537 124.016 143.083 121.343 143.099H92.5884C91.1091 143.098 89.6443 143.341 88.2782 143.814C86.9122 144.287 85.6719 144.98 84.629 145.854L76.7257 152.439M48.6997 129.089L82.3309 157.109" stroke="#FF9100" stroke-width="10" stroke-linecap="round" stroke-linejoin="round"/>
<path fill-rule="evenodd" clip-rule="evenodd" d="M106.963 61.4895C108.62 61.4895 110.21 62.148 111.382 63.3201C112.554 64.4922 113.213 66.082 113.213 67.7396V89.6151C113.213 91.2727 112.554 92.8624 111.382 94.0346C110.21 95.2067 108.62 95.8652 106.963 95.8652C105.305 95.8652 103.715 95.2067 102.543 94.0346C101.371 92.8624 100.712 91.2727 100.712 89.6151V67.7396C100.712 66.082 101.371 64.4922 102.543 63.3201C103.715 62.148 105.305 61.4895 106.963 61.4895Z" fill="#FF9100"/>
<path d="M113.213 52.1144C113.213 53.772 112.554 55.3618 111.382 56.5339C110.21 57.706 108.62 58.3645 106.963 58.3645C105.305 58.3645 103.715 57.706 102.543 56.5339C101.371 55.3618 100.712 53.772 100.712 52.1144C100.712 50.4567 101.371 48.867 102.543 47.6949C103.715 46.5228 105.305 45.8643 106.963 45.8643C108.62 45.8643 110.21 46.5228 111.382 47.6949C112.554 48.867 113.213 50.4567 113.213 52.1144Z" fill="#FF9100"/>
<defs>
<filter id="filter0_d_194_833" x="0" y="0.708496" width="216" height="216" filterUnits="userSpaceOnUse" color-interpolation-filters="sRGB">
<feFlood flood-opacity="0" result="BackgroundImageFix"/>
<feColorMatrix in="SourceAlpha" type="matrix" values="0 0 0 0 0 0 0 0 0 0 0 0 0 0 0 0 0 0 127 0" result="hardAlpha"/>
<feOffset dx="2" dy="2"/>
<feGaussianBlur stdDeviation="4"/>
<feComposite in2="hardAlpha" operator="out"/>
<feColorMatrix type="matrix" values="0 0 0 0 0 0 0 0 0 0 0 0 0 0 0 0 0 0 0.75 0"/>
<feBlend mode="normal" in2="BackgroundImageFix" result="effect1_dropShadow_194_833"/>
<feBlend mode="normal" in="SourceGraphic" in2="effect1_dropShadow_194_833" result="shape"/>
</filter>
</defs>
</svg>
