<svg width="216" height="217" viewBox="0 0 216 217" fill="none" xmlns="http://www.w3.org/2000/svg">
<g filter="url(#filter0_d_194_840)">
<circle cx="106" cy="106.708" r="100" fill="#FAFAFA"/>
</g>
<path d="M81.2676 98.6431C81.2676 96.3418 83.1331 94.4763 85.4343 94.4763C87.7356 94.4763 89.6011 96.3418 89.6011 98.6431C89.6011 100.944 87.7356 102.81 85.4343 102.81C83.1331 102.81 81.2676 100.944 81.2676 98.6431ZM97.9346 98.6431C97.9346 96.3418 99.8001 94.4763 102.101 94.4763H127.102C129.403 94.4763 131.269 96.3418 131.269 98.6431C131.269 100.944 129.403 102.81 127.102 102.81H102.101C99.8001 102.81 97.9346 100.944 97.9346 98.6431ZM81.2676 119.477C81.2676 117.176 83.1331 115.31 85.4343 115.31C87.7356 115.31 89.6011 117.176 89.6011 119.477C89.6011 121.778 87.7356 123.644 85.4343 123.644C83.1331 123.644 81.2676 121.778 81.2676 119.477ZM81.2676 140.311C81.2676 138.009 83.1331 136.144 85.4343 136.144C87.7356 136.144 89.6011 138.009 89.6011 140.311C89.6011 142.612 87.7356 144.477 85.4343 144.477C83.1331 144.477 81.2676 142.612 81.2676 140.311Z" fill="#FF9100"/>
<path d="M68.7673 156.978V69.4758H81.2676V71.9761C81.2676 77.4989 85.7447 81.9761 91.2676 81.9761H121.269C126.791 81.9761 131.269 77.4989 131.269 71.9761V69.4758H143.769V98.6431C143.769 100.944 145.634 102.81 147.936 102.81C150.237 102.81 152.102 100.944 152.102 98.6431V69.4758C152.102 67.2657 151.224 65.146 149.662 63.5832C148.099 62.0203 145.979 61.1423 143.769 61.1423H131.269V56.9756C131.269 54.7654 130.391 52.6457 128.828 51.0829C127.265 49.5201 125.145 48.6421 122.935 48.6421H89.6011C87.3909 48.6421 85.2712 49.5201 83.7084 51.0829C82.1456 52.6457 81.2676 54.7654 81.2676 56.9756V61.1423H68.7673C66.5572 61.1423 64.4375 62.0203 62.8747 63.5832C61.3118 65.146 60.4338 67.2657 60.4338 69.4758V156.978C60.4338 159.188 61.3118 161.307 62.8747 162.87C64.4375 164.433 66.5572 165.311 68.7673 165.311H102.101C104.403 165.311 106.268 163.446 106.268 161.144C106.268 158.843 104.403 156.978 102.101 156.978H68.7673ZM89.6011 56.9756H122.935V73.6426H89.6011V56.9756Z" fill="#FF9100"/>
<path d="M106 127.909L124.133 145.909L160.4 109.909" stroke="#FF9100" stroke-width="10" stroke-linecap="round" stroke-linejoin="round"/>
<defs>
<filter id="filter0_d_194_840" x="0" y="0.708496" width="216" height="216" filterUnits="userSpaceOnUse" color-interpolation-filters="sRGB">
<feFlood flood-opacity="0" result="BackgroundImageFix"/>
<feColorMatrix in="SourceAlpha" type="matrix" values="0 0 0 0 0 0 0 0 0 0 0 0 0 0 0 0 0 0 127 0" result="hardAlpha"/>
<feOffset dx="2" dy="2"/>
<feGaussianBlur stdDeviation="4"/>
<feComposite in2="hardAlpha" operator="out"/>
<feColorMatrix type="matrix" values="0 0 0 0 0 0 0 0 0 0 0 0 0 0 0 0 0 0 0.75 0"/>
<feBlend mode="normal" in2="BackgroundImageFix" result="effect1_dropShadow_194_840"/>
<feBlend mode="normal" in="SourceGraphic" in2="effect1_dropShadow_194_840" result="shape"/>
</filter>
</defs>
</svg>
