<svg width="216" height="217" viewBox="0 0 216 217" fill="none" xmlns="http://www.w3.org/2000/svg">
<g filter="url(#filter0_d_194_829)">
<circle cx="106" cy="106.708" r="100" fill="#FAFAFA"/>
</g>
<path fill-rule="evenodd" clip-rule="evenodd" d="M78.9167 48.375C80.5744 48.375 82.1641 49.0335 83.3362 50.2056C84.5083 51.3777 85.1668 52.9674 85.1668 54.625V65.0417H126.833V54.625C126.833 52.9674 127.492 51.3777 128.664 50.2056C129.836 49.0335 131.426 48.375 133.083 48.375C134.741 48.375 136.331 49.0335 137.503 50.2056C138.675 51.3777 139.333 52.9674 139.333 54.625V65.0417H156C158.21 65.0417 160.33 65.9196 161.893 67.4824C163.455 69.0452 164.333 71.1649 164.333 73.375V156.708C164.333 158.918 163.455 161.038 161.893 162.601C160.33 164.164 158.21 165.042 156 165.042H56.0001C53.7899 165.042 51.6703 164.164 50.1075 162.601C48.5447 161.038 47.6667 158.918 47.6667 156.708V73.375C47.6667 71.1649 48.5447 69.0452 50.1075 67.4824C51.6703 65.9196 53.7899 65.0417 56.0001 65.0417H72.6667V54.625C72.6667 52.9674 73.3252 51.3777 74.4973 50.2056C75.6694 49.0335 77.2591 48.375 78.9167 48.375ZM60.1667 77.5417V90.0417H151.833V77.5417H60.1667ZM60.1667 152.542V102.542H151.833V152.542H60.1667ZM131 131.708C133.21 131.708 135.33 130.83 136.893 129.268C138.455 127.705 139.333 125.585 139.333 123.375C139.333 121.165 138.455 119.045 136.893 117.482C135.33 115.92 133.21 115.042 131 115.042C128.79 115.042 126.67 115.92 125.108 117.482C123.545 119.045 122.667 121.165 122.667 123.375C122.667 125.585 123.545 127.705 125.108 129.268C126.67 130.83 128.79 131.708 131 131.708Z" fill="#FF9100"/>
<defs>
<filter id="filter0_d_194_829" x="0" y="0.708496" width="216" height="216" filterUnits="userSpaceOnUse" color-interpolation-filters="sRGB">
<feFlood flood-opacity="0" result="BackgroundImageFix"/>
<feColorMatrix in="SourceAlpha" type="matrix" values="0 0 0 0 0 0 0 0 0 0 0 0 0 0 0 0 0 0 127 0" result="hardAlpha"/>
<feOffset dx="2" dy="2"/>
<feGaussianBlur stdDeviation="4"/>
<feComposite in2="hardAlpha" operator="out"/>
<feColorMatrix type="matrix" values="0 0 0 0 0 0 0 0 0 0 0 0 0 0 0 0 0 0 0.75 0"/>
<feBlend mode="normal" in2="BackgroundImageFix" result="effect1_dropShadow_194_829"/>
<feBlend mode="normal" in="SourceGraphic" in2="effect1_dropShadow_194_829" result="shape"/>
</filter>
</defs>
</svg>
