<svg width="216" height="217" viewBox="0 0 216 217" fill="none" xmlns="http://www.w3.org/2000/svg">
<g filter="url(#filter0_d_194_852)">
<circle cx="106" cy="106.708" r="100" fill="#FAFAFA"/>
</g>
<path d="M93.7677 84.6428C90.6381 84.6428 88.101 87.1799 88.101 90.3096V106.977C88.101 110.106 90.6381 112.643 93.7677 112.643C96.8974 112.643 99.4345 110.106 99.4345 106.977V90.3096C99.4345 87.1799 96.8974 84.6428 93.7677 84.6428ZM72.934 92.9763C69.8043 92.9763 67.2672 95.5134 67.2672 98.6431V106.977C67.2672 110.106 69.8043 112.643 72.934 112.643C76.0636 112.643 78.6007 110.106 78.6007 106.977V98.6431C78.6007 95.5134 76.0636 92.9763 72.934 92.9763ZM52.1002 67.9758C48.9706 67.9758 46.4335 70.5129 46.4335 73.6426V106.977C46.4335 110.106 48.9706 112.643 52.1002 112.643C55.2299 112.643 57.767 110.106 57.767 106.977V73.6426C57.767 70.5129 55.2299 67.9758 52.1002 67.9758Z" fill="#FF9100" stroke="#FF9100" stroke-width="3"/>
<path d="M97.9365 145.477C108.989 145.477 119.159 141.621 127.176 135.191L155.058 163.072C157.075 165.09 160.346 165.09 162.364 163.072C164.381 161.055 164.381 157.784 162.364 155.766L134.483 127.886C141.142 119.604 144.777 109.287 144.769 98.6423C144.768 72.819 123.758 51.8088 97.9345 51.8088C89.1357 51.8088 80.7118 54.2039 73.3343 58.7785C70.8316 60.3303 70.4313 63.6444 72.1249 65.9026C73.854 68.208 77.045 68.5769 79.4057 67.1806C84.9929 63.876 91.3904 62.1225 97.9315 62.1423H97.9345C118.062 62.1423 134.435 78.5158 134.435 98.6431C134.435 118.77 118.062 135.144 97.9345 135.144L97.9307 135.144C92.2615 135.165 86.6665 133.856 81.5958 131.321C77.7436 129.394 74.2757 126.802 71.3477 123.673C69.4692 121.665 66.2944 121.124 63.9849 122.859C61.7312 124.553 61.1844 127.841 63.1495 130.031C67.0449 134.374 71.7317 137.954 76.9725 140.574C83.4805 143.826 90.661 145.506 97.9365 145.477ZM97.9365 145.477C97.9358 145.477 97.9351 145.477 97.9345 145.477V144.477M97.9365 145.477C97.9371 145.477 97.9378 145.477 97.9384 145.477L97.9345 144.477M97.9345 144.477C109.072 144.477 119.293 140.477 127.243 133.844M97.9345 144.477C90.8149 144.505 83.7882 142.862 77.4196 139.679C72.2915 137.116 67.7055 133.613 63.8939 129.364C62.3613 127.655 62.7505 125.038 64.5855 123.659C66.4323 122.272 69.0393 122.669 70.6175 124.356C73.6264 127.571 77.19 130.236 81.1486 132.215C86.3592 134.82 92.1088 136.166 97.9345 136.144L127.243 133.844M127.243 133.844L155.765 162.365C157.392 163.992 160.03 163.992 161.657 162.365C163.284 160.738 163.284 158.1 161.657 156.473L133.135 127.952C140.013 119.735 143.777 109.359 143.769 98.6431L127.243 133.844Z" fill="#FF9100" stroke="#FF9100" stroke-width="2"/>
<defs>
<filter id="filter0_d_194_852" x="0" y="0.708496" width="216" height="216" filterUnits="userSpaceOnUse" color-interpolation-filters="sRGB">
<feFlood flood-opacity="0" result="BackgroundImageFix"/>
<feColorMatrix in="SourceAlpha" type="matrix" values="0 0 0 0 0 0 0 0 0 0 0 0 0 0 0 0 0 0 127 0" result="hardAlpha"/>
<feOffset dx="2" dy="2"/>
<feGaussianBlur stdDeviation="4"/>
<feComposite in2="hardAlpha" operator="out"/>
<feColorMatrix type="matrix" values="0 0 0 0 0 0 0 0 0 0 0 0 0 0 0 0 0 0 0.75 0"/>
<feBlend mode="normal" in2="BackgroundImageFix" result="effect1_dropShadow_194_852"/>
<feBlend mode="normal" in="SourceGraphic" in2="effect1_dropShadow_194_852" result="shape"/>
</filter>
</defs>
</svg>
