<svg width="41" height="40" viewBox="0 0 25 24" fill="none" xmlns="http://www.w3.org/2000/svg">
<path d="M7.88537 12.7692H20.4718C20.6521 12.7716 20.8274 12.7093 20.9657 12.5936C21.104 12.4779 21.1963 12.3164 21.2257 12.1385L22.4874 5.98462C22.5077 5.87395 22.5034 5.76018 22.4749 5.65134C22.4464 5.5425 22.3944 5.44124 22.3225 5.35469C22.2506 5.26814 22.1606 5.19841 22.0588 5.15041C21.9571 5.10242 21.846 5.07734 21.7335 5.07692H6.3467M7.88537 12.7692L6.3467 5.07692M7.88537 12.7692L8.53162 16C8.56709 16.1737 8.66151 16.3299 8.7989 16.442C8.93629 16.5542 9.10822 16.6154 9.28557 16.6154H18.6561M6.3467 5.07692L5.70045 2.61538C5.66498 2.44164 5.57056 2.28548 5.43317 2.17334C5.29578 2.0612 5.12386 1.99996 4.9465 2H2.5M17.8868 22C17.6827 22 17.4871 21.919 17.3428 21.7747C17.1985 21.6304 17.1174 21.4348 17.1174 21.2308C17.1174 21.0268 17.1985 20.8311 17.3428 20.6868C17.4871 20.5426 17.6827 20.4615 17.8868 20.4615C18.0908 20.4615 18.2865 20.5426 18.4308 20.6868C18.5751 20.8311 18.6561 21.0268 18.6561 21.2308C18.6561 21.4348 18.5751 21.6304 18.4308 21.7747C18.2865 21.919 18.0908 22 17.8868 22ZM10.1934 22C9.98935 22 9.79367 21.919 9.64939 21.7747C9.50511 21.6304 9.42405 21.4348 9.42405 21.2308C9.42405 21.0268 9.50511 20.8311 9.64939 20.6868C9.79367 20.5426 9.98935 20.4615 10.1934 20.4615C10.3974 20.4615 10.5931 20.5426 10.7374 20.6868C10.8817 20.8311 10.9627 21.0268 10.9627 21.2308C10.9627 21.4348 10.8817 21.6304 10.7374 21.7747C10.5931 21.919 10.3974 22 10.1934 22Z" stroke="#FF9100" stroke-width="2" stroke-linecap="round" stroke-linejoin="round"/>
</svg>
