<svg width="170" height="170" viewBox="0 0 166 166" fill="none" xmlns="http://www.w3.org/2000/svg">
<g filter="url(#filter0_d_161_681)">
<circle cx="81" cy="81" r="75" fill="#FAFAFA"/>
</g>
<path fill-rule="evenodd" clip-rule="evenodd" d="M72.3344 40.5752H89.468C97.1265 40.5752 103.193 40.5752 107.939 41.2127C112.823 41.871 116.777 43.2544 119.898 46.3711C123.015 49.492 124.398 53.4463 125.056 58.3297C125.694 63.0798 125.694 69.1424 125.694 76.8009V85.3677C125.694 86.1965 125.365 86.9914 124.778 87.5775C124.192 88.1635 123.398 88.4928 122.569 88.4928C121.74 88.4928 120.945 88.1635 120.359 87.5775C119.773 86.9914 119.444 86.1965 119.444 85.3677V84.326H42.3588V85.3677C42.3588 93.3137 42.3671 98.9597 42.9421 103.243C43.5046 107.431 44.563 109.847 46.3255 111.61C48.088 113.372 50.5048 114.431 54.6965 114.993C58.9799 115.568 64.6217 115.577 72.5677 115.577H85.068C85.8968 115.577 86.6916 115.906 87.2777 116.492C87.8638 117.078 88.193 117.873 88.193 118.702C88.193 119.531 87.8638 120.325 87.2777 120.911C86.6916 121.498 85.8968 121.827 85.068 121.827H72.3344C64.6759 121.827 58.6091 121.827 53.8632 121.189C48.9797 120.531 45.0255 119.148 41.9046 116.031C38.7879 112.91 37.4045 108.956 36.7462 104.072C36.1086 99.3222 36.1086 93.2595 36.1086 85.6011V76.8009C36.1086 69.1424 36.1086 63.0756 36.7462 58.3297C37.4045 53.4463 38.7879 49.492 41.9046 46.3711C45.0255 43.2544 48.9797 41.871 53.8632 41.2127C58.6133 40.5752 64.6759 40.5752 72.3344 40.5752ZM42.3588 78.0759H119.444V77.0342C119.444 69.0882 119.435 63.4465 118.86 59.1589C118.298 54.9713 117.239 52.5546 115.477 50.792C113.714 49.0295 111.298 47.9711 107.106 47.4086C102.827 46.8336 97.1807 46.8253 89.2347 46.8253H72.5677C64.6217 46.8253 58.9799 46.8336 54.6923 47.4086C50.5048 47.9711 48.088 49.0295 46.3255 50.792C44.563 52.5546 43.5046 54.9713 42.9421 59.163C42.3671 63.4465 42.3588 69.0882 42.3588 77.0342V78.0759ZM55.9007 55.1588C56.7295 55.1588 57.5244 55.488 58.1105 56.0741C58.6965 56.6602 59.0258 57.455 59.0258 58.2838V66.6173C59.0258 67.4462 58.6965 68.241 58.1105 68.8271C57.5244 69.4132 56.7295 69.7424 55.9007 69.7424C55.0719 69.7424 54.277 69.4132 53.691 68.8271C53.1049 68.241 52.7756 67.4462 52.7756 66.6173V58.2838C52.7756 57.455 53.1049 56.6602 53.691 56.0741C54.277 55.488 55.0719 55.1588 55.9007 55.1588ZM68.401 55.1588C69.2298 55.1588 70.0246 55.488 70.6107 56.0741C71.1968 56.6602 71.526 57.455 71.526 58.2838V66.6173C71.526 67.4462 71.1968 68.241 70.6107 68.8271C70.0246 69.4132 69.2298 69.7424 68.401 69.7424C67.5721 69.7424 66.7773 69.4132 66.1912 68.8271C65.6051 68.241 65.2759 67.4462 65.2759 66.6173V58.2838C65.2759 57.455 65.6051 56.6602 66.1912 56.0741C66.7773 55.488 67.5721 55.1588 68.401 55.1588ZM84.0263 62.4506C84.0263 61.6218 84.3555 60.8269 84.9416 60.2408C85.5276 59.6548 86.3225 59.3255 87.1513 59.3255H105.902C106.731 59.3255 107.525 59.6548 108.111 60.2408C108.698 60.8269 109.027 61.6218 109.027 62.4506C109.027 63.2794 108.698 64.0743 108.111 64.6604C107.525 65.2464 106.731 65.5757 105.902 65.5757H87.1513C86.3225 65.5757 85.5276 65.2464 84.9416 64.6604C84.3555 64.0743 84.0263 63.2794 84.0263 62.4506ZM93.1056 101.006C94.7265 94.7679 101.122 90.5762 108.006 90.5762C113.327 90.5762 118.173 92.9929 120.948 96.8888C121.186 97.2231 121.356 97.6011 121.448 98.001C121.54 98.401 121.552 98.8152 121.484 99.2199C121.416 99.6246 121.269 100.012 121.051 100.36C120.833 100.708 120.549 101.009 120.214 101.247C119.88 101.485 119.502 101.655 119.102 101.747C118.702 101.839 118.288 101.851 117.883 101.783C117.479 101.715 117.091 101.568 116.743 101.35C116.396 101.132 116.094 100.848 115.856 100.514C114.356 98.4096 111.489 96.8263 108.006 96.8263C103.977 96.8263 100.977 98.8347 99.6724 101.326C100.132 101.558 100.528 101.9 100.824 102.321C101.12 102.743 101.308 103.231 101.369 103.742C101.431 104.254 101.366 104.772 101.179 105.252C100.992 105.732 100.689 106.158 100.297 106.493L97.8682 108.577C97.3019 109.062 96.5806 109.329 95.8348 109.329C95.089 109.329 94.3678 109.062 93.8015 108.577L91.3681 106.493C90.9012 106.094 90.5621 105.567 90.3932 104.976C90.2243 104.386 90.2331 103.759 90.4185 103.174C90.6038 102.588 90.9575 102.07 91.4354 101.685C91.9133 101.299 92.4942 101.063 93.1056 101.006ZM55.9007 92.6595C56.7295 92.6595 57.5244 92.9888 58.1105 93.5748C58.6965 94.1609 59.0258 94.9558 59.0258 95.7846V104.118C59.0258 104.947 58.6965 105.742 58.1105 106.328C57.5244 106.914 56.7295 107.243 55.9007 107.243C55.0719 107.243 54.277 106.914 53.691 106.328C53.1049 105.742 52.7756 104.947 52.7756 104.118V95.7846C52.7756 94.9558 53.1049 94.1609 53.691 93.5748C54.277 92.9888 55.0719 92.6595 55.9007 92.6595ZM68.401 92.6595C69.2298 92.6595 70.0246 92.9888 70.6107 93.5748C71.1968 94.1609 71.526 94.9558 71.526 95.7846V104.118C71.526 104.947 71.1968 105.742 70.6107 106.328C70.0246 106.914 69.2298 107.243 68.401 107.243C67.5721 107.243 66.7773 106.914 66.1912 106.328C65.6051 105.742 65.2759 104.947 65.2759 104.118V95.7846C65.2759 94.9558 65.6051 94.1609 66.1912 93.5748C66.7773 92.9888 67.5721 92.6595 68.401 92.6595ZM118.102 103.826C118.668 103.341 119.39 103.074 120.135 103.074C120.881 103.074 121.602 103.341 122.169 103.826L124.602 105.91C125.069 106.309 125.408 106.836 125.577 107.427C125.746 108.017 125.737 108.644 125.552 109.229C125.366 109.815 125.013 110.333 124.535 110.718C124.057 111.104 123.476 111.34 122.865 111.397C121.244 117.635 114.848 121.827 107.964 121.827C102.643 121.827 97.7974 119.41 95.0223 115.514C94.7843 115.18 94.6144 114.802 94.5225 114.402C94.4305 114.002 94.4182 113.588 94.4863 113.183C94.5544 112.778 94.7016 112.391 94.9194 112.043C95.1372 111.695 95.4213 111.394 95.7557 111.156C96.09 110.918 96.4679 110.748 96.8679 110.656C97.2679 110.564 97.682 110.552 98.0868 110.62C98.4915 110.688 98.8788 110.835 99.2267 111.053C99.5745 111.271 99.8761 111.555 100.114 111.889C101.614 113.993 104.481 115.577 107.964 115.577C111.993 115.577 114.994 113.568 116.298 111.077C115.838 110.845 115.442 110.503 115.146 110.082C114.85 109.66 114.663 109.172 114.601 108.661C114.539 108.149 114.604 107.631 114.791 107.151C114.978 106.671 115.281 106.244 115.673 105.91L118.102 103.826Z" fill="#FF9100"/>
<defs>
<filter id="filter0_d_161_681" x="0" y="0" width="166" height="166" filterUnits="userSpaceOnUse" color-interpolation-filters="sRGB">
<feFlood flood-opacity="0" result="BackgroundImageFix"/>
<feColorMatrix in="SourceAlpha" type="matrix" values="0 0 0 0 0 0 0 0 0 0 0 0 0 0 0 0 0 0 127 0" result="hardAlpha"/>
<feOffset dx="2" dy="2"/>
<feGaussianBlur stdDeviation="4"/>
<feComposite in2="hardAlpha" operator="out"/>
<feColorMatrix type="matrix" values="0 0 0 0 0 0 0 0 0 0 0 0 0 0 0 0 0 0 0.75 0"/>
<feBlend mode="normal" in2="BackgroundImageFix" result="effect1_dropShadow_161_681"/>
<feBlend mode="normal" in="SourceGraphic" in2="effect1_dropShadow_161_681" result="shape"/>
</filter>
</defs>
</svg>
