<svg width="170" height="170" viewBox="0 0 166 166" fill="none" xmlns="http://www.w3.org/2000/svg">
<g filter="url(#filter0_d_161_656)">
<circle cx="81" cy="81" r="75" fill="#FAFAFA"/>
</g>
<path d="M68.0754 81.201L74.1172 75.1592C74.9506 74.3258 75.3506 73.3536 75.3173 72.2425C75.2839 71.1313 74.8839 70.1591 74.1172 69.3257C73.2839 68.4924 72.295 68.0591 71.1505 68.0257C70.006 67.9924 69.0157 68.391 68.1796 69.2216L59.1169 78.2843C58.2836 79.1176 57.8669 80.0898 57.8669 81.201C57.8669 82.3121 58.2836 83.2844 59.1169 84.1177L68.1796 93.1804C69.013 94.0137 70.0033 94.4137 71.1505 94.3804C72.2977 94.3471 73.2867 93.9123 74.1172 93.0762C74.8811 92.2429 75.2811 91.2706 75.3173 90.1595C75.3534 89.0484 74.9534 88.0761 74.1172 87.2428L68.0754 81.201ZM94.326 81.201L88.2842 87.2428C87.4508 88.0761 87.0508 89.0484 87.0842 90.1595C87.1175 91.2706 87.5175 92.2429 88.2842 93.0762C89.1175 93.9096 90.1078 94.3429 91.2551 94.3762C92.4023 94.4096 93.3912 94.011 94.2218 93.1804L103.284 84.1177C104.118 83.2844 104.535 82.3121 104.535 81.201C104.535 80.0898 104.118 79.1176 103.284 78.2843L94.2218 69.2216C93.3884 68.3882 92.3995 67.9882 91.2551 68.0215C90.1106 68.0549 89.1203 68.4896 88.2842 69.3257C87.5203 70.1591 87.1217 71.1313 87.0883 72.2425C87.055 73.3536 87.4536 74.3258 88.2842 75.1592L94.326 81.201ZM52.0335 118.702C49.7417 118.702 47.7806 117.886 46.15 116.256C44.5194 114.625 43.7027 112.663 43.7 110.368V52.0337C43.7 49.742 44.5166 47.7809 46.15 46.1503C47.7834 44.5197 49.7445 43.703 52.0335 43.7002H69.5338C70.4366 41.2002 71.9477 39.1863 74.0672 37.6584C76.1867 36.1306 78.5645 35.3667 81.2007 35.3667C83.8396 35.3667 86.2189 36.1306 88.3383 37.6584C90.4578 39.1863 91.9676 41.2002 92.8676 43.7002H110.368C112.66 43.7002 114.622 44.5169 116.256 46.1503C117.889 47.7836 118.704 49.7448 118.701 52.0337V110.368C118.701 112.66 117.886 114.622 116.256 116.256C114.625 117.889 112.662 118.705 110.368 118.702H52.0335ZM52.0335 110.368H110.368V52.0337H52.0335V110.368ZM81.2007 48.9087C82.1035 48.9087 82.8507 48.6128 83.4424 48.0211C84.0341 47.4295 84.3285 46.6836 84.3258 45.7836C84.3258 44.8808 84.0299 44.135 83.4382 43.5461C82.8466 42.9572 82.1007 42.6613 81.2007 42.6585C80.2979 42.6585 79.5521 42.9544 78.9632 43.5461C78.3743 44.1377 78.0784 44.8836 78.0756 45.7836C78.0756 46.6864 78.3715 47.4336 78.9632 48.0253C79.5548 48.617 80.3007 48.9114 81.2007 48.9087Z" fill="#FF9100"/>
<defs>
<filter id="filter0_d_161_656" x="0" y="0" width="166" height="166" filterUnits="userSpaceOnUse" color-interpolation-filters="sRGB">
<feFlood flood-opacity="0" result="BackgroundImageFix"/>
<feColorMatrix in="SourceAlpha" type="matrix" values="0 0 0 0 0 0 0 0 0 0 0 0 0 0 0 0 0 0 127 0" result="hardAlpha"/>
<feOffset dx="2" dy="2"/>
<feGaussianBlur stdDeviation="4"/>
<feComposite in2="hardAlpha" operator="out"/>
<feColorMatrix type="matrix" values="0 0 0 0 0 0 0 0 0 0 0 0 0 0 0 0 0 0 0.75 0"/>
<feBlend mode="normal" in2="BackgroundImageFix" result="effect1_dropShadow_161_656"/>
<feBlend mode="normal" in="SourceGraphic" in2="effect1_dropShadow_161_656" result="shape"/>
</filter>
</defs>
</svg>
