<svg width="170" height="170" viewBox="0 0 166 166" fill="none" xmlns="http://www.w3.org/2000/svg">
<g filter="url(#filter0_d_161_674)">
<circle cx="81" cy="81" r="75" fill="#FAFAFA"/>
</g>
<path d="M121.827 80.701C119.824 80.701 118.201 82.324 118.201 84.326V99.4514H44.2V50.4504H62.4503C64.4524 50.4504 66.0754 48.8274 66.0754 46.8253C66.0754 44.8232 64.4524 43.2002 62.4503 43.2002H43.7C41.9097 43.2002 40.1928 43.9114 38.9269 45.1773C37.661 46.4432 36.9498 48.1601 36.9498 49.9504V99.9514C36.9498 101.742 37.661 103.459 38.9269 104.724C40.1928 105.99 41.9097 106.701 43.7 106.701H68.2005V118.202H59.3253C57.3232 118.202 55.7002 119.825 55.7002 121.827C55.7002 123.829 57.3232 125.452 59.3253 125.452H103.076C105.078 125.452 106.701 123.829 106.701 121.827C106.701 119.825 105.078 118.202 103.076 118.202H94.201V106.701H118.701C120.492 106.701 122.209 105.99 123.475 104.724C124.74 103.459 125.452 101.742 125.452 99.9514V84.326C125.452 82.324 123.829 80.701 121.827 80.701ZM86.9508 118.202H75.4506V106.701H86.9508V118.202Z" fill="#FF9100" stroke="#FF9100"/>
<path d="M100.089 55.5766L90.9163 85.3918C90.6884 86.133 90.2287 86.7815 89.605 87.2421C88.9813 87.7027 88.2263 87.9512 87.4509 87.9511C87.4508 87.9511 87.4508 87.9511 87.4508 87.9511H87.4196H87.4144C86.6333 87.9429 85.8757 87.6827 85.2545 87.2091C84.6333 86.7355 84.1817 86.0739 83.967 85.3229L83.9669 85.3228L78.4673 66.0757H68.7005C66.6984 66.0757 65.0754 64.4527 65.0754 62.4506C65.0754 60.4485 66.6984 58.8255 68.7005 58.8255H81.2005H81.2008V59.3255L100.089 55.5766ZM100.089 55.5766L102.761 63.5961C102.761 63.5961 102.761 63.5962 102.761 63.5962C103.002 64.3183 103.463 64.9464 104.081 65.3914C104.698 65.8364 105.44 66.0758 106.201 66.0757C106.201 66.0757 106.201 66.0757 106.201 66.0757H121.827C123.829 66.0757 125.452 64.4527 125.452 62.4506C125.452 60.4485 123.829 58.8255 121.827 58.8255H108.812L103.393 42.5617C103.393 42.5605 103.393 42.5593 103.392 42.558C103.161 41.8293 102.701 41.1944 102.08 40.7473C101.459 40.2996 100.71 40.0639 99.9447 40.0752C99.1742 40.0836 98.4258 40.3345 97.8059 40.7921C97.1856 41.25 96.7254 41.8917 96.4905 42.626L96.4904 42.626L96.4888 42.6313L87.5812 71.5833L100.089 55.5766Z" fill="#FF9100" stroke="#FF9100"/>
<defs>
<filter id="filter0_d_161_674" x="0" y="0" width="166" height="166" filterUnits="userSpaceOnUse" color-interpolation-filters="sRGB">
<feFlood flood-opacity="0" result="BackgroundImageFix"/>
<feColorMatrix in="SourceAlpha" type="matrix" values="0 0 0 0 0 0 0 0 0 0 0 0 0 0 0 0 0 0 127 0" result="hardAlpha"/>
<feOffset dx="2" dy="2"/>
<feGaussianBlur stdDeviation="4"/>
<feComposite in2="hardAlpha" operator="out"/>
<feColorMatrix type="matrix" values="0 0 0 0 0 0 0 0 0 0 0 0 0 0 0 0 0 0 0.75 0"/>
<feBlend mode="normal" in2="BackgroundImageFix" result="effect1_dropShadow_161_674"/>
<feBlend mode="normal" in="SourceGraphic" in2="effect1_dropShadow_161_674" result="shape"/>
</filter>
</defs>
</svg>
