<svg width="170" height="170" viewBox="0 0 166 166" fill="none" xmlns="http://www.w3.org/2000/svg">
<g filter="url(#filter0_d_161_687)">
<circle cx="81" cy="81" r="75" fill="#FAFAFA"/>
</g>
<mask id="path-2-inside-1_161_687" fill="white">
<path d="M52.7 58.8506H74.5754V62.2069L71.1566 65.1007H52.7C51.0423 65.1007 49.4526 65.7592 48.2805 66.9313C47.1083 68.1035 46.4498 69.6932 46.4498 71.3509V75.9759L77.7005 92.8013L85.9444 88.3637C87.0069 90.2512 88.4444 91.895 90.157 93.195L79.1817 99.1014C78.7265 99.3465 78.2175 99.4748 77.7005 99.4748C77.1834 99.4748 76.6744 99.3465 76.2192 99.1014L46.4498 83.0761V108.852C46.4498 110.509 47.1083 112.099 48.2805 113.271C49.4526 114.443 51.0423 115.102 52.7 115.102H102.701C104.359 115.102 105.948 114.443 107.12 113.271C108.293 112.099 108.951 110.509 108.951 108.852V93.2263C111.417 91.3748 113.282 88.8378 114.314 85.9324L115.045 83.8511H115.201V108.852C115.201 112.167 113.884 115.346 111.54 117.691C109.196 120.035 106.016 121.352 102.701 121.352H52.7C49.3847 121.352 46.2052 120.035 43.8609 117.691C41.5167 115.346 40.1997 112.167 40.1997 108.852V71.3509C40.1997 68.0356 41.5167 64.8561 43.8609 62.5118C46.2052 60.1676 49.3847 58.8506 52.7 58.8506Z"/>
</mask>
<path d="M52.7 58.8506V42.8506V58.8506ZM74.5754 58.8506H90.5754V42.8506H74.5754V58.8506ZM74.5754 62.2069L84.9125 74.4194L90.5754 69.6261V62.2069H74.5754ZM71.1566 65.1007V81.1007H77.019L81.4937 77.3132L71.1566 65.1007ZM46.4498 71.3509H30.4498H46.4498ZM46.4498 75.9759H30.4498V85.5332L38.8649 90.0638L46.4498 75.9759ZM77.7005 92.8013L70.1155 106.889L77.6997 110.972L85.2841 106.89L77.7005 92.8013ZM85.9444 88.3637L99.8871 80.5151L92.1855 66.8334L78.3607 74.2751L85.9444 88.3637ZM90.157 93.195L97.7392 107.284L119.648 95.4942L99.8312 80.4511L90.157 93.195ZM79.1817 99.1014L71.5995 85.0121L71.5977 85.013L79.1817 99.1014ZM76.2192 99.1014L68.6352 113.19L68.6352 113.19L76.2192 99.1014ZM46.4498 83.0761L54.0338 68.9877L30.4498 56.292V83.0761H46.4498ZM46.4498 108.852L30.4498 108.852L46.4498 108.852ZM108.951 93.2263L99.3431 80.4323L92.9511 85.2325V93.2263H108.951ZM114.314 85.9324L129.391 91.2874L129.4 91.2618L129.409 91.2362L114.314 85.9324ZM115.045 83.8511V67.8511H103.708L99.9496 78.5473L115.045 83.8511ZM115.201 83.8511H131.201V67.8511H115.201V83.8511ZM40.1997 108.852L24.1997 108.852L40.1997 108.852ZM52.7 74.8506H74.5754V42.8506H52.7V74.8506ZM58.5754 58.8506V62.2069H90.5754V58.8506H58.5754ZM64.2383 49.9944L60.8195 52.8882L81.4937 77.3132L84.9125 74.4194L64.2383 49.9944ZM71.1566 49.1007H52.7V81.1007H71.1566V49.1007ZM52.7 49.1007C46.7988 49.1007 41.1394 51.4449 36.9667 55.6176L59.5942 78.2451C57.7657 80.0735 55.2858 81.1007 52.7 81.1007V49.1007ZM36.9667 55.6176C32.794 59.7903 30.4498 65.4497 30.4498 71.3509L62.4498 71.3509C62.4498 73.9367 61.4226 76.4166 59.5942 78.2451L36.9667 55.6176ZM30.4498 71.3509V75.9759H62.4498V71.3509H30.4498ZM38.8649 90.0638L70.1155 106.889L85.2854 78.7134L54.0348 61.888L38.8649 90.0638ZM85.2841 106.89L93.5281 102.452L78.3607 74.2751L70.1168 78.7127L85.2841 106.89ZM72.0016 96.2123C74.1413 100.013 77.034 103.321 80.4827 105.939L99.8312 80.4511C99.8548 80.469 99.8725 80.4892 99.8871 80.5151L72.0016 96.2123ZM82.5747 79.1057L71.5995 85.0121L86.764 113.191L97.7392 107.284L82.5747 79.1057ZM71.5977 85.013C73.4734 84.0033 75.5703 83.4748 77.7005 83.4748V115.475C80.8647 115.475 83.9795 114.69 86.7657 113.19L71.5977 85.013ZM77.7005 83.4748C79.8306 83.4748 81.9275 84.0033 83.8032 85.013L68.6352 113.19C71.4214 114.69 74.5362 115.475 77.7005 115.475V83.4748ZM83.8032 85.013L54.0338 68.9877L38.8658 97.1645L68.6352 113.19L83.8032 85.013ZM30.4498 83.0761V108.852H62.4498V83.0761H30.4498ZM30.4498 108.852C30.4498 114.753 32.794 120.412 36.9667 124.585L59.5942 101.957C61.4226 103.786 62.4498 106.266 62.4498 108.852L30.4498 108.852ZM36.9667 124.585C41.1395 128.758 46.7989 131.102 52.7 131.102V99.1017C55.2858 99.1017 57.7657 100.129 59.5942 101.957L36.9667 124.585ZM52.7 131.102H102.701V99.1017H52.7V131.102ZM102.701 131.102C108.602 131.102 114.261 128.758 118.434 124.585L95.8068 101.957C97.6352 100.129 100.115 99.1017 102.701 99.1017V131.102ZM118.434 124.585C122.607 120.412 124.951 114.753 124.951 108.852H92.9511C92.9511 106.266 93.9783 103.786 95.8068 101.957L118.434 124.585ZM124.951 108.852V93.2263H92.9511V108.852H124.951ZM118.559 106.02C123.539 102.28 127.307 97.1561 129.391 91.2874L99.2364 80.5774C99.257 80.5196 99.2941 80.4691 99.3431 80.4323L118.559 106.02ZM129.409 91.2362L130.14 89.1549L99.9496 78.5473L99.2183 80.6286L129.409 91.2362ZM115.045 99.8511H115.201V67.8511H115.045V99.8511ZM99.2012 83.8511V108.852H131.201V83.8511H99.2012ZM99.2012 108.852C99.2012 107.923 99.5699 107.033 100.226 106.377L122.854 129.004C128.198 123.66 131.201 116.41 131.201 108.852H99.2012ZM100.226 106.377C100.883 105.721 101.773 105.352 102.701 105.352V137.352C110.26 137.352 117.509 134.349 122.854 129.004L100.226 106.377ZM102.701 105.352H52.7V137.352H102.701V105.352ZM52.7 105.352C53.6282 105.352 54.5183 105.721 55.1747 106.377L32.5472 129.004C37.8921 134.349 45.1412 137.352 52.7 137.352V105.352ZM55.1747 106.377C55.831 107.033 56.1997 107.923 56.1997 108.852L24.1997 108.852C24.1997 116.41 27.2024 123.659 32.5472 129.004L55.1747 106.377ZM56.1997 108.852V71.3509H24.1997V108.852H56.1997ZM56.1997 71.3509C56.1997 72.279 55.831 73.1692 55.1747 73.8255L32.5472 51.1981C27.2024 56.543 24.1997 63.7921 24.1997 71.3509H56.1997ZM55.1747 73.8255C54.5183 74.4819 53.6281 74.8506 52.7 74.8506L52.7 42.8506C45.1412 42.8506 37.8921 45.8533 32.5472 51.1981L55.1747 73.8255Z" fill="#FF9100" mask="url(#path-2-inside-1_161_687)"/>
<mask id="path-4-outside-2_161_687" maskUnits="userSpaceOnUse" x="74.9495" y="39.8" width="49" height="57" fill="black">
<rect fill="white" x="74.9495" y="39.8" width="49" height="57"/>
<path fill-rule="evenodd" clip-rule="evenodd" d="M81.4889 56.558C81.6935 53.6003 83.1327 50.8245 85.5137 48.7957C87.8946 46.767 91.0381 45.6378 94.3044 45.638H96.0015V43.5645C96.0015 42.8313 96.3225 42.1282 96.894 41.6097C97.4654 41.0912 98.2404 40.8 99.0485 40.8C99.8566 40.8 100.632 41.0912 101.203 41.6097C101.774 42.1282 102.095 42.8313 102.095 43.5645V45.638H103.793C107.059 45.6378 110.202 46.767 112.583 48.7957C114.964 50.8245 116.403 53.6003 116.608 56.558L117.281 66.3279C117.538 70.053 118.917 73.6428 121.267 76.706C121.753 77.3393 122.049 78.0758 122.128 78.8439C122.207 79.612 122.066 80.3856 121.718 81.0894C121.369 81.7932 120.826 82.4033 120.141 82.8604C119.457 83.3174 118.653 83.6058 117.809 83.6976L107.428 84.8256V87.7975C107.428 89.8138 106.545 91.7475 104.973 93.1733C103.402 94.599 101.271 95.4 99.0485 95.4C96.8262 95.4 94.6949 94.599 93.1235 93.1733C91.5521 91.7475 90.6693 89.8138 90.6693 87.7975V84.8256L80.2883 83.6949C79.4446 83.6028 78.6415 83.3144 77.957 82.8575C77.2724 82.4006 76.7298 81.7909 76.3817 81.0875C76.0336 80.3841 75.892 79.611 75.9706 78.8432C76.0491 78.0755 76.3452 77.3393 76.83 76.706C79.1802 73.6427 80.5587 70.053 80.8155 66.3279L81.4889 56.5607V56.558ZM94.3044 49.7848C92.2007 49.7846 90.176 50.5118 88.6424 51.8184C87.1089 53.1251 86.1819 54.9129 86.0502 56.8178L85.3798 66.5878C85.0701 71.0691 83.4112 75.3874 80.5839 79.0725C80.5488 79.1183 80.5273 79.1716 80.5215 79.2271C80.5158 79.2827 80.526 79.3386 80.5512 79.3896C80.5763 79.4405 80.6156 79.4846 80.6651 79.5177C80.7146 79.5508 80.7727 79.5717 80.8338 79.5784L92.2202 80.8197C96.7572 81.3118 101.34 81.3118 105.877 80.8197L117.263 79.5784C117.324 79.5717 117.382 79.5508 117.432 79.5177C117.481 79.4846 117.521 79.4405 117.546 79.3896C117.571 79.3386 117.581 79.2827 117.575 79.2271C117.57 79.1716 117.548 79.1183 117.513 79.0725C114.687 75.3871 113.029 71.0688 112.72 66.5878L112.047 56.8178C111.915 54.9129 110.988 53.1251 109.455 51.8184C107.921 50.5118 105.896 49.7846 103.793 49.7848H94.3044ZM99.0485 91.2531C96.9461 91.2531 95.2398 89.705 95.2398 87.7975V85.724H102.857V87.7975C102.857 89.705 101.151 91.2531 99.0485 91.2531Z"/>
</mask>
<path fill-rule="evenodd" clip-rule="evenodd" d="M81.4889 56.558C81.6935 53.6003 83.1327 50.8245 85.5137 48.7957C87.8946 46.767 91.0381 45.6378 94.3044 45.638H96.0015V43.5645C96.0015 42.8313 96.3225 42.1282 96.894 41.6097C97.4654 41.0912 98.2404 40.8 99.0485 40.8C99.8566 40.8 100.632 41.0912 101.203 41.6097C101.774 42.1282 102.095 42.8313 102.095 43.5645V45.638H103.793C107.059 45.6378 110.202 46.767 112.583 48.7957C114.964 50.8245 116.403 53.6003 116.608 56.558L117.281 66.3279C117.538 70.053 118.917 73.6428 121.267 76.706C121.753 77.3393 122.049 78.0758 122.128 78.8439C122.207 79.612 122.066 80.3856 121.718 81.0894C121.369 81.7932 120.826 82.4033 120.141 82.8604C119.457 83.3174 118.653 83.6058 117.809 83.6976L107.428 84.8256V87.7975C107.428 89.8138 106.545 91.7475 104.973 93.1733C103.402 94.599 101.271 95.4 99.0485 95.4C96.8262 95.4 94.6949 94.599 93.1235 93.1733C91.5521 91.7475 90.6693 89.8138 90.6693 87.7975V84.8256L80.2883 83.6949C79.4446 83.6028 78.6415 83.3144 77.957 82.8575C77.2724 82.4006 76.7298 81.7909 76.3817 81.0875C76.0336 80.3841 75.892 79.611 75.9706 78.8432C76.0491 78.0755 76.3452 77.3393 76.83 76.706C79.1802 73.6427 80.5587 70.053 80.8155 66.3279L81.4889 56.5607V56.558ZM94.3044 49.7848C92.2007 49.7846 90.176 50.5118 88.6424 51.8184C87.1089 53.1251 86.1819 54.9129 86.0502 56.8178L85.3798 66.5878C85.0701 71.0691 83.4112 75.3874 80.5839 79.0725C80.5488 79.1183 80.5273 79.1716 80.5215 79.2271C80.5158 79.2827 80.526 79.3386 80.5512 79.3896C80.5763 79.4405 80.6156 79.4846 80.6651 79.5177C80.7146 79.5508 80.7727 79.5717 80.8338 79.5784L92.2202 80.8197C96.7572 81.3118 101.34 81.3118 105.877 80.8197L117.263 79.5784C117.324 79.5717 117.382 79.5508 117.432 79.5177C117.481 79.4846 117.521 79.4405 117.546 79.3896C117.571 79.3386 117.581 79.2827 117.575 79.2271C117.57 79.1716 117.548 79.1183 117.513 79.0725C114.687 75.3871 113.029 71.0688 112.72 66.5878L112.047 56.8178C111.915 54.9129 110.988 53.1251 109.455 51.8184C107.921 50.5118 105.896 49.7846 103.793 49.7848H94.3044ZM99.0485 91.2531C96.9461 91.2531 95.2398 89.705 95.2398 87.7975V85.724H102.857V87.7975C102.857 89.705 101.151 91.2531 99.0485 91.2531Z" fill="#FF9100"/>
<path d="M81.4889 56.558L80.4912 56.4889L80.4889 56.5234V56.558H81.4889ZM94.3044 45.638L94.3043 46.638H94.3044V45.638ZM96.0015 45.638V46.638H97.0015V45.638H96.0015ZM99.0485 40.8V39.8V40.8ZM102.095 45.638H101.095V46.638H102.095V45.638ZM103.793 45.638V46.638H103.793L103.793 45.638ZM116.608 56.558L117.606 56.4892L117.606 56.4889L116.608 56.558ZM117.281 66.3279L118.279 66.2592L118.279 66.2591L117.281 66.3279ZM121.267 76.706L122.06 76.0975L122.06 76.0973L121.267 76.706ZM117.809 83.6976L117.917 84.6918L117.917 84.6918L117.809 83.6976ZM107.428 84.8256L107.32 83.8314L106.428 83.9283V84.8256H107.428ZM107.428 87.7975H106.428H107.428ZM90.6693 87.7975H91.6693H90.6693ZM90.6693 84.8256H91.6693V83.9286L90.7776 83.8314L90.6693 84.8256ZM80.2883 83.6949L80.1799 84.689L80.1801 84.689L80.2883 83.6949ZM76.83 76.706L76.0366 76.0974L76.0361 76.0981L76.83 76.706ZM80.8155 66.3279L79.8178 66.2591L79.8178 66.2591L80.8155 66.3279ZM81.4889 56.5607L82.4865 56.6295L82.4889 56.5952V56.5607H81.4889ZM94.3044 49.7848L94.3043 50.7848H94.3044V49.7848ZM86.0502 56.8178L85.0525 56.7488L85.0525 56.7494L86.0502 56.8178ZM85.3798 66.5878L86.3774 66.6567L86.3775 66.6562L85.3798 66.5878ZM80.5839 79.0725L79.7905 78.4638L79.7905 78.4638L80.5839 79.0725ZM80.8338 79.5784L80.7248 80.5725L80.7254 80.5725L80.8338 79.5784ZM92.2202 80.8197L92.1119 81.8138L92.1124 81.8139L92.2202 80.8197ZM105.877 80.8197L105.985 81.8139L105.985 81.8138L105.877 80.8197ZM117.263 79.5784L117.372 80.5725L117.372 80.5725L117.263 79.5784ZM117.513 79.0725L116.72 79.6811L116.72 79.6812L117.513 79.0725ZM112.72 66.5878L113.718 66.519L113.718 66.519L112.72 66.5878ZM112.047 56.8178L113.044 56.7491L113.044 56.7488L112.047 56.8178ZM103.793 49.7848V50.7848H103.793L103.793 49.7848ZM95.2398 85.724V84.724H94.2398V85.724H95.2398ZM102.857 85.724H103.857V84.724H102.857V85.724ZM82.4865 56.627C82.6714 53.9536 83.9734 51.4219 86.1622 49.5569L84.8651 48.0346C82.2921 50.227 80.7155 53.2469 80.4912 56.4889L82.4865 56.627ZM86.1622 49.5569C88.3537 47.6896 91.2644 46.6378 94.3043 46.638L94.3044 44.638C90.8119 44.6377 87.4355 45.8444 84.8651 48.0346L86.1622 49.5569ZM94.3044 46.638H96.0015V44.638H94.3044V46.638ZM97.0015 45.638V43.5645H95.0015V45.638H97.0015ZM97.0015 43.5645C97.0015 43.1297 97.1911 42.6904 97.5659 42.3503L96.222 40.8691C95.454 41.5659 95.0015 42.533 95.0015 43.5645H97.0015ZM97.5659 42.3503C97.944 42.0072 98.4759 41.8 99.0485 41.8V39.8C98.0049 39.8 96.9868 40.1752 96.222 40.8691L97.5659 42.3503ZM99.0485 41.8C99.6211 41.8 100.153 42.0072 100.531 42.3503L101.875 40.8691C101.11 40.1752 100.092 39.8 99.0485 39.8V41.8ZM100.531 42.3503C100.906 42.6904 101.095 43.1297 101.095 43.5645H103.095C103.095 42.533 102.643 41.5659 101.875 40.8691L100.531 42.3503ZM101.095 43.5645V45.638H103.095V43.5645H101.095ZM102.095 46.638H103.793V44.638H102.095V46.638ZM103.793 46.638C106.833 46.6378 109.743 47.6896 111.935 49.5569L113.232 48.0346C110.662 45.8444 107.285 44.6377 103.793 44.638L103.793 46.638ZM111.935 49.5569C114.124 51.4219 115.426 53.9536 115.611 56.627L117.606 56.4889C117.381 53.2469 115.805 50.227 113.232 48.0346L111.935 49.5569ZM115.61 56.6267L116.284 66.3967L118.279 66.2591L117.606 56.4892L115.61 56.6267ZM116.284 66.3966C116.554 70.3249 118.008 74.1011 120.474 77.3148L122.06 76.0973C119.825 73.1845 118.522 69.7812 118.279 66.2592L116.284 66.3966ZM120.473 77.3145C120.85 77.8061 121.074 78.3686 121.133 78.9462L123.123 78.7417C123.024 77.7831 122.655 76.8725 122.06 76.0975L120.473 77.3145ZM121.133 78.9462C121.193 79.5234 121.087 80.1082 120.821 80.6461L122.614 81.5328C123.044 80.663 123.222 79.7006 123.123 78.7417L121.133 78.9462ZM120.821 80.6461C120.555 81.1849 120.133 81.6639 119.586 82.0285L120.697 83.6922C121.52 83.1428 122.184 82.4016 122.614 81.5328L120.821 80.6461ZM119.586 82.0285C119.04 82.3935 118.39 82.6285 117.701 82.7035L117.917 84.6918C118.916 84.5832 119.874 84.2413 120.697 83.6922L119.586 82.0285ZM117.701 82.7035L107.32 83.8314L107.536 85.8197L117.917 84.6918L117.701 82.7035ZM106.428 84.8256V87.7975H108.428V84.8256H106.428ZM106.428 87.7975C106.428 89.5154 105.676 91.1852 104.301 92.4327L105.645 93.9138C107.413 92.3098 108.428 90.1121 108.428 87.7975H106.428ZM104.301 92.4327C102.923 93.683 101.035 94.4 99.0485 94.4V96.4C101.506 96.4 103.881 95.515 105.645 93.9138L104.301 92.4327ZM99.0485 94.4C97.0617 94.4 95.1736 93.683 93.7955 92.4327L92.4516 93.9138C94.2163 95.515 96.5907 96.4 99.0485 96.4V94.4ZM93.7955 92.4327C92.4207 91.1852 91.6693 89.5154 91.6693 87.7975H89.6693C89.6693 90.1121 90.6836 92.3098 92.4516 93.9138L93.7955 92.4327ZM91.6693 87.7975V84.8256H89.6693V87.7975H91.6693ZM90.7776 83.8314L80.3966 82.7007L80.1801 84.689L90.5611 85.8197L90.7776 83.8314ZM80.3968 82.7007C79.7077 82.6256 79.0587 82.3905 78.5121 82.0257L77.4018 83.6892C78.2243 84.2382 79.1816 84.5801 80.1799 84.689L80.3968 82.7007ZM78.5121 82.0257C77.9659 81.6612 77.5445 81.1825 77.278 80.644L75.4854 81.531C75.9151 82.3992 76.5789 83.14 77.4018 83.6892L78.5121 82.0257ZM77.278 80.644C77.012 80.1064 76.9063 79.522 76.9654 78.945L74.9758 78.7414C74.8777 79.6999 75.0553 80.6618 75.4854 81.531L77.278 80.644ZM76.9654 78.945C77.0244 78.3677 77.2477 77.8055 77.624 77.314L76.0361 76.0981C75.4427 76.8731 75.0738 77.7833 74.9758 78.7414L76.9654 78.945ZM77.6235 77.3147C80.0889 74.1011 81.5423 70.3248 81.8131 66.3967L79.8178 66.2591C79.5751 69.7811 78.2714 73.1844 76.0366 76.0974L77.6235 77.3147ZM81.8131 66.3967L82.4865 56.6295L80.4912 56.4919L79.8178 66.2591L81.8131 66.3967ZM82.4889 56.5607V56.558H80.4889V56.5607H82.4889ZM94.3045 48.7848C91.9745 48.7845 89.7169 49.5892 87.9939 51.0573L89.291 52.5796C90.635 51.4344 92.4269 50.7846 94.3043 50.7848L94.3045 48.7848ZM87.9939 51.0573C86.2683 52.5276 85.204 54.5595 85.0525 56.7488L87.0478 56.8868C87.1599 55.2662 87.9496 53.7225 89.291 52.5796L87.9939 51.0573ZM85.0525 56.7494L84.3822 66.5193L86.3775 66.6562L87.0478 56.8863L85.0525 56.7494ZM84.3822 66.5188C84.0865 70.7971 82.5025 74.929 79.7905 78.4638L81.3773 79.6812C84.32 75.8458 86.0537 71.341 86.3774 66.6567L84.3822 66.5188ZM79.7905 78.4638C79.6467 78.6512 79.5522 78.8784 79.5268 79.1244L81.5163 79.3298C81.5023 79.4647 81.4508 79.5854 81.3773 79.6812L79.7905 78.4638ZM79.5268 79.1244C79.5014 79.3707 79.5474 79.6155 79.6545 79.8324L81.4478 78.9468C81.5046 79.0618 81.5302 79.1946 81.5163 79.3298L79.5268 79.1244ZM79.6545 79.8324C79.7612 80.0483 79.9216 80.2236 80.1094 80.3492L81.2207 78.6863C81.3095 78.7457 81.3914 78.8327 81.4478 78.9468L79.6545 79.8324ZM80.1094 80.3492C80.2969 80.4744 80.5091 80.5488 80.7248 80.5725L80.9427 78.5844C81.0363 78.5946 81.1323 78.6272 81.2207 78.6863L80.1094 80.3492ZM80.7254 80.5725L92.1119 81.8138L92.3286 79.8256L80.9421 78.5843L80.7254 80.5725ZM92.1124 81.8139C96.721 82.3137 101.376 82.3137 105.985 81.8139L105.769 79.8255C101.304 80.3099 96.7933 80.3099 92.3281 79.8255L92.1124 81.8139ZM105.985 81.8138L117.372 80.5725L117.155 78.5843L105.768 79.8256L105.985 81.8138ZM117.372 80.5725C117.588 80.5488 117.8 80.4744 117.988 80.3492L116.876 78.6863C116.965 78.6272 117.061 78.5946 117.154 78.5844L117.372 80.5725ZM117.988 80.3492C118.175 80.2236 118.336 80.0483 118.442 79.8324L116.649 78.9468C116.706 78.8327 116.787 78.7457 116.876 78.6863L117.988 80.3492ZM118.442 79.8324C118.55 79.6155 118.596 79.3707 118.57 79.1244L116.581 79.3298C116.567 79.1947 116.592 79.0618 116.649 78.9468L118.442 79.8324ZM118.57 79.1244C118.545 78.8785 118.45 78.6512 118.306 78.4638L116.72 79.6812C116.646 79.5854 116.595 79.4647 116.581 79.3298L118.57 79.1244ZM118.307 78.464C115.596 74.9289 114.013 70.7971 113.718 66.519L111.723 66.6565C112.045 71.3406 113.778 75.8453 116.72 79.6811L118.307 78.464ZM113.718 66.519L113.044 56.7491L111.049 56.8866L111.723 66.6565L113.718 66.519ZM113.044 56.7488C112.893 54.5595 111.829 52.5276 110.103 51.0573L108.806 52.5796C110.147 53.7225 110.937 55.2662 111.049 56.8868L113.044 56.7488ZM110.103 51.0573C108.38 49.5892 106.122 48.7845 103.792 48.7848L103.793 50.7848C105.67 50.7846 107.462 51.4344 108.806 52.5796L110.103 51.0573ZM103.793 48.7848H94.3044V50.7848H103.793V48.7848ZM99.0485 90.2531C97.4046 90.2531 96.2398 89.0634 96.2398 87.7975H94.2398C94.2398 90.3466 96.4875 92.2531 99.0485 92.2531V90.2531ZM96.2398 87.7975V85.724H94.2398V87.7975H96.2398ZM95.2398 86.724H102.857V84.724H95.2398V86.724ZM101.857 85.724V87.7975H103.857V85.724H101.857ZM101.857 87.7975C101.857 89.0634 100.692 90.2531 99.0485 90.2531V92.2531C101.609 92.2531 103.857 90.3466 103.857 87.7975H101.857Z" fill="#FF9100" mask="url(#path-4-outside-2_161_687)"/>
<defs>
<filter id="filter0_d_161_687" x="0" y="0" width="166" height="166" filterUnits="userSpaceOnUse" color-interpolation-filters="sRGB">
<feFlood flood-opacity="0" result="BackgroundImageFix"/>
<feColorMatrix in="SourceAlpha" type="matrix" values="0 0 0 0 0 0 0 0 0 0 0 0 0 0 0 0 0 0 127 0" result="hardAlpha"/>
<feOffset dx="2" dy="2"/>
<feGaussianBlur stdDeviation="4"/>
<feComposite in2="hardAlpha" operator="out"/>
<feColorMatrix type="matrix" values="0 0 0 0 0 0 0 0 0 0 0 0 0 0 0 0 0 0 0.75 0"/>
<feBlend mode="normal" in2="BackgroundImageFix" result="effect1_dropShadow_161_687"/>
<feBlend mode="normal" in="SourceGraphic" in2="effect1_dropShadow_161_687" result="shape"/>
</filter>
</defs>
</svg>
